# xmcd
#
# Track frame offsets:
#	150
#	14240
#	32252
#	49450
#	65974
#	86652
#	97685
#	111199
#	124882
#	138933
#	152070
#	163185
#	172211
#
# Disc length: 2488 seconds
#
# Revision: 0
# Processed by: cddbd v1.5.2PL0 Copyright (c) Steve Scherf et al.
# Submitted via: dBpowerAMP V4.0
#
DISCID=b709b60d
DTITLE=HAYSEED DIXIES - HAYSEED DIXIES
DYEAR=2002
DGENRE=Bluegrass
TTITLE0=01 Black Dog
TTITLE1=02 Whole Lotta Love
TTITLE2=03 Holiday
TTITLE3=04 Rockin In A Free World
TTITLE4=05 Roses
TTITLE5=06 Blind Beggar Breakdown
TTITLE6=07 Kirby Hill
TTITLE7=08 Uncel Virgil
TTITLE8=09 Mountain Man
TTITLE9=10 Marijuana
TTITLE10=11 Moonshier`s Daugther
TTITLE11=12 Wish I Was You
TTITLE12=13 Duelling Banjos
EXTD=
EXTT0=
EXTT1=
EXTT2=
EXTT3=
EXTT4=
EXTT5=
EXTT6=
EXTT7=
EXTT8=
EXTT9=
EXTT10=
EXTT11=
EXTT12=
PLAYORDER=
